<?xml version="1.0" encoding="UTF-8"?>
<!DOCTYPE svg PUBLIC "-//W3C//DTD SVG 1.1//EN" "http://www.w3.org/Graphics/SVG/1.1/DTD/svg11.dtd">
<svg version="1.2" width="17.2mm" height="23.55mm" viewBox="0 0 1720 2355" preserveAspectRatio="xMidYMid" fill-rule="evenodd" stroke-width="28.222" stroke-linejoin="round" xmlns="http://www.w3.org/2000/svg" xmlns:ooo="http://xml.openoffice.org/svg/export" xmlns:xlink="http://www.w3.org/1999/xlink" xmlns:presentation="http://sun.com/xmlns/staroffice/presentation" xmlns:smil="http://www.w3.org/2001/SMIL20/" xmlns:anim="urn:oasis:names:tc:opendocument:xmlns:animation:1.0" xmlns:svg="urn:oasis:names:tc:opendocument:xmlns:svg-compatible:1.0" xml:space="preserve">
 <defs class="ClipPathGroup">
  <clipPath id="presentation_clip_path" clipPathUnits="userSpaceOnUse">
   <rect x="0" y="0" width="1720" height="2355"/>
  </clipPath>
  <clipPath id="presentation_clip_path_shrink" clipPathUnits="userSpaceOnUse">
   <rect x="1" y="2" width="1717" height="2351"/>
  </clipPath>
 </defs>
 <defs class="TextShapeIndex">
  <g ooo:slide="id1" ooo:id-list="id3 id4 id5 id6 id7 id8 id9 id10 id11 id12 id13 id14 id15"/>
 </defs>
 <defs class="EmbeddedBulletChars">
  <g id="bullet-char-template-57356" transform="scale(0.00048828125,-0.00048828125)">
   <path d="M 580,1141 L 1163,571 580,0 -4,571 580,1141 Z"/>
  </g>
  <g id="bullet-char-template-57354" transform="scale(0.00048828125,-0.00048828125)">
   <path d="M 8,1128 L 1137,1128 1137,0 8,0 8,1128 Z"/>
  </g>
  <g id="bullet-char-template-10146" transform="scale(0.00048828125,-0.00048828125)">
   <path d="M 174,0 L 602,739 174,1481 1456,739 174,0 Z M 1358,739 L 309,1346 659,739 1358,739 Z"/>
  </g>
  <g id="bullet-char-template-10132" transform="scale(0.00048828125,-0.00048828125)">
   <path d="M 2015,739 L 1276,0 717,0 1260,543 174,543 174,936 1260,936 717,1481 1274,1481 2015,739 Z"/>
  </g>
  <g id="bullet-char-template-10007" transform="scale(0.00048828125,-0.00048828125)">
   <path d="M 0,-2 C -7,14 -16,27 -25,37 L 356,567 C 262,823 215,952 215,954 215,979 228,992 255,992 264,992 276,990 289,987 310,991 331,999 354,1012 L 381,999 492,748 772,1049 836,1024 860,1049 C 881,1039 901,1025 922,1006 886,937 835,863 770,784 769,783 710,716 594,584 L 774,223 C 774,196 753,168 711,139 L 727,119 C 717,90 699,76 672,76 641,76 570,178 457,381 L 164,-76 C 142,-110 111,-127 72,-127 30,-127 9,-110 8,-76 1,-67 -2,-52 -2,-32 -2,-23 -1,-13 0,-2 Z"/>
  </g>
  <g id="bullet-char-template-10004" transform="scale(0.00048828125,-0.00048828125)">
   <path d="M 285,-33 C 182,-33 111,30 74,156 52,228 41,333 41,471 41,549 55,616 82,672 116,743 169,778 240,778 293,778 328,747 346,684 L 369,508 C 377,444 397,411 428,410 L 1163,1116 C 1174,1127 1196,1133 1229,1133 1271,1133 1292,1118 1292,1087 L 1292,965 C 1292,929 1282,901 1262,881 L 442,47 C 390,-6 338,-33 285,-33 Z"/>
  </g>
  <g id="bullet-char-template-9679" transform="scale(0.00048828125,-0.00048828125)">
   <path d="M 813,0 C 632,0 489,54 383,161 276,268 223,411 223,592 223,773 276,916 383,1023 489,1130 632,1184 813,1184 992,1184 1136,1130 1245,1023 1353,916 1407,772 1407,592 1407,412 1353,268 1245,161 1136,54 992,0 813,0 Z"/>
  </g>
  <g id="bullet-char-template-8226" transform="scale(0.00048828125,-0.00048828125)">
   <path d="M 346,457 C 273,457 209,483 155,535 101,586 74,649 74,723 74,796 101,859 155,911 209,963 273,989 346,989 419,989 480,963 531,910 582,859 608,796 608,723 608,648 583,586 532,535 482,483 420,457 346,457 Z"/>
  </g>
  <g id="bullet-char-template-8211" transform="scale(0.00048828125,-0.00048828125)">
   <path d="M -4,459 L 1135,459 1135,606 -4,606 -4,459 Z"/>
  </g>
  <g id="bullet-char-template-61548" transform="scale(0.00048828125,-0.00048828125)">
   <path d="M 173,740 C 173,903 231,1043 346,1159 462,1274 601,1332 765,1332 928,1332 1067,1274 1183,1159 1299,1043 1357,903 1357,740 1357,577 1299,437 1183,322 1067,206 928,148 765,148 601,148 462,206 346,322 231,437 173,577 173,740 Z"/>
  </g>
 </defs>
 <g>
  <g id="id2" class="Master_Slide">
   <g id="bg-id2" class="Background"/>
   <g id="bo-id2" class="BackgroundObjects"/>
  </g>
 </g>
 <g class="SlideGroup">
  <g>
   <g id="container-id1">
    <g id="id1" class="Slide" clip-path="url(#presentation_clip_path)">
     <g class="Page">
      <g class="com.sun.star.drawing.ClosedBezierShape">
       <g id="id3">
        <rect class="BoundingBox" stroke="none" fill="none" x="8" y="10" width="1695" height="2330"/>
        <path fill="rgb(0,0,0)" stroke="none" d="M 247,11 C 233,11 220,17 210,27 L 25,212 C 15,222 9,235 9,249 L 9,2285 C 9,2314 33,2338 62,2338 L 1463,2338 C 1477,2338 1490,2332 1500,2322 L 1685,2137 C 1695,2127 1701,2114 1701,2100 L 1701,64 C 1701,35 1677,11 1648,11 L 247,11 Z"/>
       </g>
      </g>
      <g class="com.sun.star.drawing.ClosedBezierShape">
       <g id="id4">
        <rect class="BoundingBox" stroke="none" fill="none" x="81" y="2080" width="1602" height="240"/>
        <path fill="rgb(159,159,159)" stroke="none" d="M 320,2080 L 82,2318 320,2318 1463,2318 C 1471,2318 1480,2314 1486,2308 L 1671,2123 C 1677,2117 1681,2089 1681,2080 L 320,2080 Z"/>
       </g>
      </g>
      <g class="com.sun.star.drawing.ClosedBezierShape">
       <g id="id5">
        <rect class="BoundingBox" stroke="none" fill="none" x="28" y="30" width="240" height="2290"/>
        <path fill="rgb(215,215,215)" stroke="none" d="M 39,226 C 32,232 29,241 29,249 L 29,2001 29,2027 29,2265 82,2318 267,2133 267,2027 267,2001 267,31 C 258,31 230,35 224,41 L 39,226 Z"/>
       </g>
      </g>
      <g class="com.sun.star.drawing.ClosedBezierShape">
       <g id="id6">
        <rect class="BoundingBox" stroke="none" fill="none" x="44" y="2027" width="277" height="283"/>
        <path fill="rgb(191,191,191)" stroke="none" d="M 52,2308 L 320,2040 320,2027 45,2302 C 47,2305 49,2307 52,2308 Z"/>
       </g>
      </g>
      <g class="com.sun.star.drawing.ClosedBezierShape">
       <g id="id7">
        <rect class="BoundingBox" stroke="none" fill="none" x="51" y="2040" width="270" height="275"/>
        <path fill="rgb(183,183,183)" stroke="none" d="M 320,2053 L 320,2040 52,2308 C 54,2310 57,2312 60,2313 L 320,2053 Z"/>
       </g>
      </g>
      <g class="com.sun.star.drawing.ClosedBezierShape">
       <g id="id8">
        <rect class="BoundingBox" stroke="none" fill="none" x="59" y="2053" width="262" height="266"/>
        <path fill="rgb(175,175,175)" stroke="none" d="M 320,2067 L 320,2053 60,2313 C 63,2314 67,2316 70,2317 L 320,2067 Z"/>
       </g>
      </g>
      <g class="com.sun.star.drawing.ClosedBezierShape">
       <g id="id9">
        <rect class="BoundingBox" stroke="none" fill="none" x="69" y="2067" width="252" height="253"/>
        <path fill="rgb(167,167,167)" stroke="none" d="M 320,2067 L 70,2317 C 74,2317 78,2318 82,2318 L 320,2080 320,2067 Z"/>
       </g>
      </g>
      <g class="com.sun.star.drawing.ClosedBezierShape">
       <g id="id10">
        <rect class="BoundingBox" stroke="none" fill="none" x="38" y="2027" width="283" height="277"/>
        <path fill="rgb(199,199,199)" stroke="none" d="M 45,2302 L 320,2027 307,2027 39,2295 C 40,2298 42,2300 45,2302 Z"/>
       </g>
      </g>
      <g class="com.sun.star.drawing.ClosedBezierShape">
       <g id="id11">
        <rect class="BoundingBox" stroke="none" fill="none" x="33" y="2027" width="275" height="270"/>
        <path fill="rgb(205,205,205)" stroke="none" d="M 307,2027 L 294,2027 34,2287 C 35,2290 37,2293 39,2295 L 307,2027 Z"/>
       </g>
      </g>
      <g class="com.sun.star.drawing.ClosedBezierShape">
       <g id="id12">
        <rect class="BoundingBox" stroke="none" fill="none" x="29" y="2027" width="266" height="262"/>
        <path fill="rgb(210,210,210)" stroke="none" d="M 294,2027 L 280,2027 30,2277 C 31,2280 32,2284 34,2287 L 294,2027 Z"/>
       </g>
      </g>
      <g class="com.sun.star.drawing.ClosedBezierShape">
       <g id="id13">
        <rect class="BoundingBox" stroke="none" fill="none" x="28" y="2027" width="253" height="252"/>
        <path fill="rgb(215,215,215)" stroke="none" d="M 280,2027 L 267,2027 29,2265 C 29,2269 30,2273 30,2277 L 280,2027 Z"/>
       </g>
      </g>
      <g class="com.sun.star.drawing.ClosedBezierShape">
       <g id="id14">
        <rect class="BoundingBox" stroke="none" fill="none" x="240" y="30" width="1443" height="2105"/>
        <path fill="rgb(246,246,246)" stroke="none" d="M 1681,2080 L 1681,84 C 1681,55 1657,31 1628,31 L 294,31 C 264,31 241,55 241,84 L 241,2080 C 241,2109 264,2133 294,2133 L 1628,2133 C 1657,2133 1681,2109 1681,2080 Z"/>
       </g>
      </g>
      <g class="com.sun.star.drawing.ClosedBezierShape">
       <g id="id15">
        <rect class="BoundingBox" stroke="none" fill="none" x="213" y="30" width="82" height="2105"/>
        <path fill="rgb(255,255,255)" stroke="none" d="M 241,2080 L 241,84 C 241,55 264,31 294,31 L 267,31 C 238,31 214,55 214,84 L 214,2080 C 214,2109 238,2133 267,2133 L 294,2133 C 264,2133 241,2109 241,2080 Z"/>
       </g>
      </g>
     </g>
    </g>
   </g>
  </g>
 </g>
</svg>